<?xml version="1.0" encoding="utf-8"?>
<!-- Generator: Adobe Illustrator 19.2.1, SVG Export Plug-In . SVG Version: 6.00 Build 0)  -->
<svg version="1.1" id="Ebene_1" xmlns="http://www.w3.org/2000/svg" xmlns:xlink="http://www.w3.org/1999/xlink" x="0px" y="0px"
	 viewBox="0 0 59 60" style="enable-background:new 0 0 59 60;" xml:space="preserve">
<style type="text/css">
	.st0{fill:#FDEB1F;}
</style>
<path class="st0" d="M42.2,26.1c-0.8,0.1-2.9,0.2-1,1.8c0,0,0.4,0-0.6,0.6c-0.9,0.6,2.1,0.9,2.5,1.3c0.4,0.4-3,0-2.9,1
	c0.1,1-0.6,0.4,1.7,2.8c0,0-1.3-0.3-1.5-0.1c-0.2,0.2,2.9,2.8,2.9,3.5c0,0-0.6,0.4-0.9,0.1c-0.3-0.4-2.1-2.5-2.4-2.5
	c-0.2,0-0.7,0.1-0.9,0.5c0,0,0.8,1.9,0.6,2C39.3,37,38,36.1,38,36.1s-0.8,0.4-0.6,1.1c0.3,0.8,2.6,3.4,2.4,3.5c0,0-0.2,0.4-0.5,0.4
	c-0.3,0-1.9-2.9-2.3-3c-0.4-0.1,0.5,2.7,0.5,2.7s-1.4-1.5-1.8-1.8c-0.4-0.3-0.4,0.3-0.4,0.3l0.4,3.2c0,0-4.4-6.7-3.3,1.3
	c0,0-0.1,0.5-0.2,0.4c-0.1,0-1.1-2.6-1-3.3c0.1-0.7-0.8,2-0.8,2S29,37.3,26.1,43c0,0-0.2-2.2-0.6-2.5c-0.4-0.4-0.8-0.6-0.9-0.5
	c-0.1,0.1-1.1,1-1.5,1.1c-0.4,0.1,0.3-1.3-0.3-1.7c0,0,0.1-0.4-0.3-0.9c-0.3-0.6-0.7-0.3-2.7,1.8c0,0,0.8-2,0.8-2.8
	c0-0.7-0.8-0.9-0.8-0.9s-1.4,1.1-1.9,1c-0.4-0.1,0.7-1.5,0.7-1.9c0-0.1-0.2-0.1-0.2-0.1s-0.2-0.1-1.6,0.7L14.6,38
	c-0.2-0.1-0.4-0.1-0.3-0.6c0-0.2,4.4-2.2,4.2-2.5c-0.2-0.2-1.7-0.6-1.7-0.6s0.9-1.1,0.6-1.2c-0.3-0.1-2.3-0.3-2.3-0.3
	s-0.3-0.6-0.3-0.4c0.1,0.1,2-0.3,2-0.3l-1.3-1c0,0,3.2-0.6,0.4-2.3c-1-0.6-2.1-1.1-3.3-1.3c3,0.1,5-0.6,4.6-1.7c0,0-0.1-0.4-3.1-1.5
	c0,0,0.1-0.4,0.3-0.4c0.2,0,3.3,1.1,3.1,0.9c-0.2-0.2-1.4-1.5-1.2-1.4c0.2,0,1.7,0.6,2.1,0.2c0.5-0.4,0.8-1.2,1.1-1.4
	c0.3-0.2-0.8-1.2,0.7-0.7c0,0,1-0.6,0.2-1.5c-0.8-0.9-3.3-3.9,0.8-0.3c1,0.9,3.4-1.8,3.2-3.2c0,0,1,1,1.2,1.1
	c0.2,0.1,1.6,0.3,1.9-0.2c0.1-0.2-0.5-2.2-0.1-3.1c0,0,0.2,0,0.3,0.2c0.2,0.2,0.2,2.3,0.9,2.7c0,0,0.8-0.5,1-0.9
	c0.1-0.4-0.2,2.3,2.3,1.1c0,0,1.2-1.1,1.6-1.1c0.3,0-0.3,1.3,0,1.8c0.3,0.5,1.3,0.8,1.7,0.2c0.3-0.6,1.9-1.8,2-1.7
	c0.1,0-0.8,2.5-0.9,2.7c-0.2,0.4-0.3,0.9-0.3,0.9s0.1,0.7,1,0.9c0,0,1.6-0.9,3.3-2.2c-0.2,0.2-0.4,0.4-0.5,0.7c0,0-2.2,2.2-2.2,2.6
	c0,0.3,0.7,1,1.3,0.6c0.6-0.4,2.1-1,2.2-0.9c0.1,0.1,0.4,0.4,0.1,0.6c-0.3,0.2-2,1.1-2,1.1s1.9,0.1,4.3-0.3
	c-2.6,1.1-3.5,2.6-3.4,2.8c0.1,0.5,4.1-0.5,4.2-0.3C44.8,26.8,43,26,42.2,26.1 M59,26.2c0-0.2-0.4-0.3-0.7-0.5
	c-0.9-0.7-4-3.9-10.2-3.7c-0.8,0-1.5,0.1-2.1,0.2c1.3-0.4,2-0.7,2.4-0.8c0.5-0.2,3.6-1.3,5.3-6.9c0.1-0.5,0.6-1.6,0.5-1.7
	c-0.1-0.1-1.2,0.1-2.3,0.7c-1.1,0.7-4.7,1.2-5.1,1.3c-0.3,0-1.3-0.1-2.9,0.7c1.8-1.9,3.7-4.5,4.2-8.2c0.2-1.8,0.1-2.5,0.1-2.5
	c-0.1,0-0.2,0-0.3,0c-0.4,0.1-0.8,0.5-2.1,1.3C44.4,7.2,43,8.2,43,8.2s0.5-4.8,0.3-4.9c-0.1-0.1-2.9-0.1-7,4.6c0,0,0.5-4-0.3-5.5
	c0,0-0.2-1.1-0.4-1.7c-0.1-0.3-0.3-0.6-0.3-0.6c0,0-0.4,0.1-1,0.8c-0.9,1.1-5.2,2.4-5.9,8c-0.5-2.3-1.7-5.3-4.5-6.8
	c-1.6-1.6-2.3-2-2.4-2c-0.1,0,0,0.7-0.3,2.3c-0.3,1.8-0.5,2.3-0.5,2.3s-2.9-2.6-3-2.7c-0.1-0.1-1.9,5.6-1.4,8.5c0,0-0.9-0.7-2.6-1.6
	c-1.9-1-5.2-1.2-5.1-1c0,0.3,2.7,5.6,3.9,7.4c0,0-7.3-1.3-7.1-0.8c0,0.2,0.2,0.4,0.5,1.7c0,0-2.8-0.1-2.8,0.2c0,0.3,2.2,3.8,2.3,4
	c0,0-2.2,0.4-2.7,0.5c-0.3,0,1.5,5,6.4,6.2c0.7,0.2,1.5,0.3,2.1,0.4c-1.6,0-3.4,0.3-5.4,1.1c0,0-1.2,0.5-1.8,1
	c-0.6,0.5-3.7,1-3.9,1.5c0.1,0.3,3.8,2.9,3.8,2.9S1.6,34.8,1.5,35c-0.1,0.1-0.2,0.3-0.2,0.3c0,0,0.2,0.2,0.6,0.5
	c0.9,0.5,8.6,1.4,9.1,1.2c0.5-0.2-4.2,5.1-4.3,7.8c0,0,0.8,0.1,1.2,0.1c0.3,0-1.4,3.4-1.1,3.3c2.1-0.1,5.6-2.1,6.3-2.6
	c0.7-0.5,1.6-1.2,1.8-1.4c0.2-0.2-1.5,3-0.8,5.8c0,0,0.2,2.2,0.2,2.6c0,0.4,0.6,0.4,0.6,0.7c0,0.4,1.7-1.4,2.5-2
	c0.8-0.7,1.9-1.9,2.5-2.8c0.5-0.8,0.1,6.6-0.2,8c-0.1,0.5,0,0.5,0.1,0.7c0,0,0.8-0.6,1-0.7c0.4-0.2,4.1-5.3,4.3-6.5
	c0,0,2,8.8,2.6,9.7c0.1,0.2,0.3,0.4,0.4,0.3c0.2-0.3,0.5-1.1,0.7-1.2c0.3-0.1,1.1-0.2,1.6-1.4c0.4-1.2,1.2-2.5,1.6-5.7
	c0,0,4.2,5.4,4.7,5.9c0.2,0.2,1.4-1.7,1.9-4.8c0.5-3.1-0.6-7.2-1.3-7.4c0,0-0.3-0.5,0.5-0.2c0.5,0.2,2.2,3.2,6.2,5.5
	c0.7,0.4,2.1,0.4,2.1,0.4c0.3-0.9-2.8-9.3-2.8-9.3s0.1-0.1,0.7,0.2c0.6,0.3,6.7,4.2,10.3,2.4c0.7-0.4,0.8-0.5,0.8-0.5
	c0.4-1.8-2.8-5.3-4.8-6.8c0,0,5.2-0.2,6-1.6c0,0,1-0.3,1.5-1c0.1-0.1-0.6-1.3-1.3-1.8c-2-1.4-2.4-1.9-2.4-1.9s0.5-0.7,1.3-0.9
	c0.8-0.3,3.4-1.8,2.7-2.6C58.2,27.1,59,26.4,59,26.2"/>
</svg>
